{"asset":{"version":"2.0","generator":"Blockbench 3.8.3 glTF exporter"},"scenes":[{"nodes":[20],"name":"blockbench_export"}],"scene":0,"nodes":[{"translation":[0.05864822395523629,-0.04402600165017241,0.09375],"name":"bone2"},{"translation":[0.03125,-0.03125,-0.03125],"name":"787d4ade-b0b2-15ad-4dc1-703f5e9b3b96","mesh":0},{"translation":[0,-0.03125,-0.3125],"name":"828418ae-409d-ec78-05e6-965d62d45c6e","mesh":1},{"rotation":[-0.08715574274765817,0,0,0.9961946980917455],"translation":[0,0,0.21875],"name":"bone3","children":[2]},{"rotation":[0.08715574274765817,0,0,0.9961946980917455],"translation":[-0.03125,0.03125,0.03125],"name":"bone2","children":[1,3]},{"rotation":[0.10759982886859237,0.15121921623392837,-0.016561197646394736,0.982487023935463],"translation":[-0.09961762703851398,-0.0011395993399310467,-0.1820383406992558],"name":"Arm2"},{"translation":[0.018749999999999996,-0.03238959933993105,-0.06875],"name":"659e901c-56e7-2b5f-0e5a-1c0d18e7be1d","mesh":2},{"rotation":[0,0,0.42261826174069944,0.9063077870366499],"translation":[-0.10239822395523629,-0.07641560099010344,-0.037500000000000006],"name":"6b8f7b63-89bb-d301-cbb5-78ec05574c7b","mesh":3},{"rotation":[0,0,-0.42261826174069944,0.9063077870366499],"translation":[0.0773982239552363,-0.07641560099010346,-0.037500000000000006],"name":"39a06f1b-8078-986b-4375-4e34e0f37c57","mesh":4},{"rotation":[0,0.3214394653031616,0,0.9469301294951057],"translation":[-0.024617627038514153,0,0.01953834069925578],"name":"764d556b-ba4d-f29a-e1c6-41bf68727abc","mesh":5},{"translation":[0.11836762703851399,-0.03125,-0.1757883406992558],"name":"2674b917-5a13-9c21-bd79-0b90cf7c07f7","mesh":6},{"rotation":[0,-0.3624380382837016,0,0.9320078692827986],"translation":[0.07421551627520827,0,-0.23636061791192892],"name":"6c42211a-aa4c-0898-287e-b373ff02b30c","mesh":7},{"rotation":[0,0.3007057995042731,0,0.9537169507482269],"translation":[0.06354186478657482,2.7755575615628914e-17,-0.28181110571925694],"name":"e40932e6-f92c-aa73-3c76-e76da71ee50c","mesh":8},{"rotation":[0.086141381548015,-0.1515445107781581,0.013258426712671034,0.9846004965259324],"translation":[0.07461762703851399,-0.0011395993399310467,-0.1820383406992558],"name":"Arm","children":[9,10,11,12]},{"rotation":[0,-0.3214394653031616,0,0.9469301294951057],"translation":[0.024617627038514153,0,0.01953834069925578],"name":"cc345066-852e-7f02-8be5-2eaea2c111ac","mesh":9},{"translation":[-0.11836762703851399,-0.03125,-0.1757883406992558],"name":"3ed6b626-9b82-b983-0772-7f7ebbee29d7","mesh":10},{"rotation":[0,0.3624380382837016,0,0.9320078692827986],"translation":[-0.07421551627520827,0,-0.23636061791192892],"name":"66a55f38-0b3d-59d8-db6d-5dcb301a2f4f","mesh":11},{"rotation":[0,-0.3007057995042731,0,0.9537169507482269],"translation":[-0.06354186478657482,2.7755575615628914e-17,-0.28181110571925694],"name":"3e749433-0833-818b-5d48-7e82a5ad3269","mesh":12},{"rotation":[0.12900706449821545,0.15082194953277658,-0.019856086346990206,0.9799059407329188],"translation":[-0.09961762703851398,-0.0011395993399310467,-0.1820383406992558],"name":"Arm2","children":[14,15,16,17]},{"rotation":[0,0.13052619222005157,0,0.9914448613738104],"translation":[-0.018749999999999996,0.03238959933993105,0.06875],"name":"bone4","children":[5,6,7,8,13,18]},{"rotation":[0,0.9469301294951057,0,0.3214394653031615],"translation":[0,0.0625,0],"name":"bone","children":[0,4,19]}],"bufferViews":[{"buffer":0,"byteOffset":0,"byteLength":432,"target":34962,"byteStride":12},{"buffer":0,"byteOffset":432,"byteLength":432,"target":34962,"byteStride":12},{"buffer":0,"byteOffset":864,"byteLength":288,"target":34962,"byteStride":8},{"buffer":0,"byteOffset":1152,"byteLength":432,"target":34962,"byteStride":12},{"buffer":0,"byteOffset":1584,"byteLength":432,"target":34962,"byteStride":12},{"buffer":0,"byteOffset":2016,"byteLength":288,"target":34962,"byteStride":8},{"buffer":0,"byteOffset":2304,"byteLength":432,"target":34962,"byteStride":12},{"buffer":0,"byteOffset":2736,"byteLength":432,"target":34962,"byteStride":12},{"buffer":0,"byteOffset":3168,"byteLength":288,"target":34962,"byteStride":8},{"buffer":0,"byteOffset":3456,"byteLength":432,"target":34962,"byteStride":12},{"buffer":0,"byteOffset":3888,"byteLength":432,"target":34962,"byteStride":12},{"buffer":0,"byteOffset":4320,"byteLength":288,"target":34962,"byteStride":8},{"buffer":0,"byteOffset":4608,"byteLength":432,"target":34962,"byteStride":12},{"buffer":0,"byteOffset":5040,"byteLength":432,"target":34962,"byteStride":12},{"buffer":0,"byteOffset":5472,"byteLength":288,"target":34962,"byteStride":8},{"buffer":0,"byteOffset":5760,"byteLength":432,"target":34962,"byteStride":12},{"buffer":0,"byteOffset":6192,"byteLength":432,"target":34962,"byteStride":12},{"buffer":0,"byteOffset":6624,"byteLength":288,"target":34962,"byteStride":8},{"buffer":0,"byteOffset":6912,"byteLength":432,"target":34962,"byteStride":12},{"buffer":0,"byteOffset":7344,"byteLength":432,"target":34962,"byteStride":12},{"buffer":0,"byteOffset":7776,"byteLength":288,"target":34962,"byteStride":8},{"buffer":0,"byteOffset":8064,"byteLength":432,"target":34962,"byteStride":12},{"buffer":0,"byteOffset":8496,"byteLength":432,"target":34962,"byteStride":12},{"buffer":0,"byteOffset":8928,"byteLength":288,"target":34962,"byteStride":8},{"buffer":0,"byteOffset":9216,"byteLength":432,"target":34962,"byteStride":12},{"buffer":0,"byteOffset":9648,"byteLength":432,"target":34962,"byteStride":12},{"buffer":0,"byteOffset":10080,"byteLength":288,"target":34962,"byteStride":8},{"buffer":0,"byteOffset":10368,"byteLength":432,"target":34962,"byteStride":12},{"buffer":0,"byteOffset":10800,"byteLength":432,"target":34962,"byteStride":12},{"buffer":0,"byteOffset":11232,"byteLength":288,"target":34962,"byteStride":8},{"buffer":0,"byteOffset":11520,"byteLength":432,"target":34962,"byteStride":12},{"buffer":0,"byteOffset":11952,"byteLength":432,"target":34962,"byteStride":12},{"buffer":0,"byteOffset":12384,"byteLength":288,"target":34962,"byteStride":8},{"buffer":0,"byteOffset":12672,"byteLength":432,"target":34962,"byteStride":12},{"buffer":0,"byteOffset":13104,"byteLength":432,"target":34962,"byteStride":12},{"buffer":0,"byteOffset":13536,"byteLength":288,"target":34962,"byteStride":8},{"buffer":0,"byteOffset":13824,"byteLength":432,"target":34962,"byteStride":12},{"buffer":0,"byteOffset":14256,"byteLength":432,"target":34962,"byteStride":12},{"buffer":0,"byteOffset":14688,"byteLength":288,"target":34962,"byteStride":8}],"buffers":[{"byteLength":14976,"uri":"data:application/octet-stream;base64,"}],"accessors":[{"bufferView":0,"componentType":5126,"count":36,"max":[0.03125,0.0625,0.25],"min":[-0.09375,0,0],"type":"VEC3"},{"bufferView":1,"componentType":5126,"count":36,"max":[1,1,1],"min":[-1,-1,-1],"type":"VEC3"},{"bufferView":2,"componentType":5126,"count":36,"max":[0.875,1],"min":[0,0.125],"type":"VEC2"},{"bufferView":3,"componentType":5126,"count":36,"max":[0.125,0.0625,0.4375],"min":[-0.125,0,0.3125],"type":"VEC3"},{"bufferView":4,"componentType":5126,"count":36,"max":[1,1,1],"min":[-1,-1,-1],"type":"VEC3"},{"bufferView":5,"componentType":5126,"count":36,"max":[0.9375,0.5625],"min":[0.125,0.125],"type":"VEC2"},{"bufferView":6,"componentType":5126,"count":36,"max":[0.0625,0.125,0.0625],"min":[-0.125,0,-0.25],"type":"VEC3"},{"bufferView":7,"componentType":5126,"count":36,"max":[1,1,1],"min":[-1,-1,-1],"type":"VEC3"},{"bufferView":8,"componentType":5126,"count":36,"max":[0.6875,1],"min":[0,0.5625],"type":"VEC2"},{"bufferView":9,"componentType":5126,"count":36,"max":[0.03125,0.03125,0.03125],"min":[-0.03125,-0.03125,-0.28125],"type":"VEC3"},{"bufferView":10,"componentType":5126,"count":36,"max":[1,1,1],"min":[-1,-1,-1],"type":"VEC3"},{"bufferView":11,"componentType":5126,"count":36,"max":[0.9375,0.8125],"min":[0.125,0.0625],"type":"VEC2"},{"bufferView":12,"componentType":5126,"count":36,"max":[0.03125,0.03125,0.03125],"min":[-0.03125,-0.03125,-0.28125],"type":"VEC3"},{"bufferView":13,"componentType":5126,"count":36,"max":[1,1,1],"min":[-1,-1,-1],"type":"VEC3"},{"bufferView":14,"componentType":5126,"count":36,"max":[0.9375,0.75],"min":[0.125,0.0625],"type":"VEC2"},{"bufferView":15,"componentType":5126,"count":36,"max":[0.15625,0.03125,0.03125],"min":[-0.03125,-0.03125,-0.03125],"type":"VEC3"},{"bufferView":16,"componentType":5126,"count":36,"max":[1,1,1],"min":[-1,-1,-1],"type":"VEC3"},{"bufferView":17,"componentType":5126,"count":36,"max":[0.9375,0.75],"min":[0,0.0625],"type":"VEC2"},{"bufferView":18,"componentType":5126,"count":36,"max":[0,0.0625,0.125],"min":[-0.0625,0,-0.0625],"type":"VEC3"},{"bufferView":19,"componentType":5126,"count":36,"max":[1,1,1],"min":[-1,-1,-1],"type":"VEC3"},{"bufferView":20,"componentType":5126,"count":36,"max":[0.9375,0.625],"min":[0,0],"type":"VEC2"},{"bufferView":21,"componentType":5126,"count":36,"max":[0.03125,0.03125,-0.03125],"min":[-0.03125,-0.03125,-0.09375],"type":"VEC3"},{"bufferView":22,"componentType":5126,"count":36,"max":[1,1,1],"min":[-1,-1,-1],"type":"VEC3"},{"bufferView":23,"componentType":5126,"count":36,"max":[0.1875,1],"min":[0,0.8125],"type":"VEC2"},{"bufferView":24,"componentType":5126,"count":36,"max":[0.03125,0.03125,0.03125],"min":[-0.03125,-0.03125,-0.03125],"type":"VEC3"},{"bufferView":25,"componentType":5126,"count":36,"max":[1,1,1],"min":[-1,-1,-1],"type":"VEC3"},{"bufferView":26,"componentType":5126,"count":36,"max":[0.25,1],"min":[0,0.75],"type":"VEC2"},{"bufferView":27,"componentType":5126,"count":36,"max":[0.03125,0.03125,0.03125],"min":[-0.15625,-0.03125,-0.03125],"type":"VEC3"},{"bufferView":28,"componentType":5126,"count":36,"max":[1,1,1],"min":[-1,-1,-1],"type":"VEC3"},{"bufferView":29,"componentType":5126,"count":36,"max":[0.9375,0.75],"min":[0,0.0625],"type":"VEC2"},{"bufferView":30,"componentType":5126,"count":36,"max":[0.0625,0.0625,0.125],"min":[0,0,-0.0625],"type":"VEC3"},{"bufferView":31,"componentType":5126,"count":36,"max":[1,1,1],"min":[-1,-1,-1],"type":"VEC3"},{"bufferView":32,"componentType":5126,"count":36,"max":[0.9375,0.625],"min":[0,0],"type":"VEC2"},{"bufferView":33,"componentType":5126,"count":36,"max":[0.03125,0.03125,-0.03125],"min":[-0.03125,-0.03125,-0.09375],"type":"VEC3"},{"bufferView":34,"componentType":5126,"count":36,"max":[1,1,1],"min":[-1,-1,-1],"type":"VEC3"},{"bufferView":35,"componentType":5126,"count":36,"max":[0.1875,1],"min":[0,0.8125],"type":"VEC2"},{"bufferView":36,"componentType":5126,"count":36,"max":[0.03125,0.03125,0.03125],"min":[-0.03125,-0.03125,-0.03125],"type":"VEC3"},{"bufferView":37,"componentType":5126,"count":36,"max":[1,1,1],"min":[-1,-1,-1],"type":"VEC3"},{"bufferView":38,"componentType":5126,"count":36,"max":[0.25,1],"min":[0,0.75],"type":"VEC2"}],"materials":[{"pbrMetallicRoughness":{"metallicFactor":0,"roughnessFactor":1,"baseColorTexture":{"index":0}},"alphaMode":"MASK","alphaCutoff":0.05,"doubleSided":true,"name":"lobay"},{"pbrMetallicRoughness":{"metallicFactor":0,"roughnessFactor":1,"baseColorTexture":{"index":1}},"alphaMode":"MASK","alphaCutoff":0.05,"doubleSided":true,"name":"boop"}],"textures":[{"sampler":0,"source":0,"name":"lobay"},{"sampler":1,"source":1,"name":"boop"}],"samplers":[{"magFilter":9728,"minFilter":9728,"wrapS":33071,"wrapT":33071},{"magFilter":9728,"minFilter":9728,"wrapS":33071,"wrapT":33071}],"images":[{"mimeType":"image/png","uri":"data:image/png;base64,"},{"mimeType":"image/png","uri":"data:image/png;base64,"}],"meshes":[{"primitives":[{"mode":4,"attributes":{"POSITION":0,"NORMAL":1,"TEXCOORD_0":2},"material":0}]},{"primitives":[{"mode":4,"attributes":{"POSITION":3,"NORMAL":4,"TEXCOORD_0":5},"material":0}]},{"primitives":[{"mode":4,"attributes":{"POSITION":6,"NORMAL":7,"TEXCOORD_0":8},"material":0}]},{"primitives":[{"mode":4,"attributes":{"POSITION":9,"NORMAL":10,"TEXCOORD_0":11},"material":0}]},{"primitives":[{"mode":4,"attributes":{"POSITION":12,"NORMAL":13,"TEXCOORD_0":14},"material":0}]},{"primitives":[{"mode":4,"attributes":{"POSITION":15,"NORMAL":16,"TEXCOORD_0":17},"material":0}]},{"primitives":[{"mode":4,"attributes":{"POSITION":18,"NORMAL":19,"TEXCOORD_0":20},"material":0}]},{"primitives":[{"mode":4,"attributes":{"POSITION":21,"NORMAL":22,"TEXCOORD_0":23},"material":1}]},{"primitives":[{"mode":4,"attributes":{"POSITION":24,"NORMAL":25,"TEXCOORD_0":26},"material":1}]},{"primitives":[{"mode":4,"attributes":{"POSITION":27,"NORMAL":28,"TEXCOORD_0":29},"material":0}]},{"primitives":[{"mode":4,"attributes":{"POSITION":30,"NORMAL":31,"TEXCOORD_0":32},"material":0}]},{"primitives":[{"mode":4,"attributes":{"POSITION":33,"NORMAL":34,"TEXCOORD_0":35},"material":1}]},{"primitives":[{"mode":4,"attributes":{"POSITION":36,"NORMAL":37,"TEXCOORD_0":38},"material":1}]}]}